<svg xmlns="http://www.w3.org/2000/svg" viewBox="0 0 120 120" role="img" aria-label="KnowLever">
  <defs>
    <linearGradient id="g" x1="0%" y1="0%" x2="100%" y2="100%">
      <stop offset="0%" stop-color="#5b8def"/>
      <stop offset="100%" stop-color="#2d4263"/>
    </linearGradient>
  </defs>
  <rect width="120" height="120" rx="28" fill="#0f1419"/>
  <!-- book -->
  <path d="M28 34h38a6 6 0 0 1 6 6v52a6 6 0 0 1-6 6H28V34z" fill="url(#g)" opacity="0.95"/>
  <path d="M66 34h26a6 6 0 0 1 6 6v52a6 6 0 0 1-6 6H66V34z" fill="#1a2332" stroke="#5b8def" stroke-width="2"/>
  <line x1="66" y1="34" x2="66" y2="98" stroke="#3d5a80" stroke-width="2"/>
  <!-- lever (fulcrum + beam) -->
  <circle cx="88" cy="78" r="5" fill="#e8c547"/>
  <rect x="44" y="76" width="52" height="4" rx="2" fill="#e8c547" transform="rotate(-12 44 78)"/>
  <rect x="38" y="88" width="10" height="10" rx="2" fill="#c9a227"/>
</svg>
